# xmcd
#
# Track frame offsets: 
#        150
#        17419
#        32413
#        52613
#        70204
#        85589
#        98756
#        113746
#        132081
#        153341
#        173399
#        192079
#        208283
#
# Disc length: 3087 seconds
#
# Revision: 2
# Processed by: cddbd v1.5.2PL0 Copyright (c) Steve Scherf et al.
# Submitted via: ExactAudioCopyFreeDBPlugin 1.0
#
DISCID=900c0d0d
DTITLE=Andrea Zonn - Love Goes On
DYEAR=2003
DGENRE=Pop
TTITLE0=Heads Up For The Wrecking Ball
TTITLE1=If He's Ever Near
TTITLE2=Galilee Road
TTITLE3=In My Own Backyard
TTITLE4=Pages
TTITLE5=Stained Glass Love
TTITLE6=New Night Dawning
TTITLE7=You Remain
TTITLE8=Welcome The Rain
TTITLE9=Better Be Home Soon
TTITLE10=Another Day
TTITLE11=Weather With You
TTITLE12=Love Goes On
EXTD=YEAR: 2003
EXTT0=
EXTT1=
EXTT2=
EXTT3=
EXTT4=
EXTT5=
EXTT6=
EXTT7=
EXTT8=
EXTT9=
EXTT10=
EXTT11=
EXTT12=
PLAYORDER=
